# xmcd
#
# Track frame offsets:
#	150
#	12470
#	21585
#	39087
#	50925
#	64510
#	76670
#	89012
#	99745
#	118625
#
# Disc length: 1761
#
# Revision: 7
# Processed by: cddbd v1.5.1PL0 Copyright (c) Steve Scherf et al.
# Submitted via: ExactAudioCopy v0.90b4
# Normalized: r6:DSETVAR1
#
DISCID=7f06df0a
DTITLE=Various Artist - Country's Greatest Drinking Songs
DYEAR=1998
DGENRE=Country
TTITLE0=Freddy Fender - Wasted Days and Wasted Nights
TTITLE1=Roger Miller - Chug-A-Lug
TTITLE2=Merle Haggard - I Think I'll Just Stay Here And Drink
TTITLE3=Johnny Lee - Hey Bartender
TTITLE4=Waylon Jennings - Drinking and Dreaming
TTITLE5=Merle Haggard - The Bottle Let Me Down
TTITLE6=Johnny Russel - Rednecks, White Socks and Blue Ribbon Beer
TTITLE7=Larry Boone - Wine Me Up
TTITLE8=Earl Thomas Conley - You Must Not Be Drinking Enough
TTITLE9=Johnny Paycheck - I Can't Quit Drinking
EXTD=YEAR: 1998
EXTT0=
EXTT1=
EXTT2=
EXTT3=
EXTT4=
EXTT5=
EXTT6=
EXTT7=
EXTT8=
EXTT9=
PLAYORDER=
